# xmcd
#
# Track frame offsets: 
#        150
#        16756
#        32218
#        51401
#        67990
#        84595
#        97004
#        117138
#        127199
#        145539
#        156965
#        172496
#        183059
#        194997
#        214006
#        223803
#        241107
#        257457
#        279174
#
# Disc length: 3919 seconds
#
# Revision: 0
# Processed by: cddbd v1.5.2PL0 Copyright (c) Steve Scherf et al.
# Submitted via: ExactAudioCopy v1.0b3
#
DISCID=180f4d13
DTITLE=Wolfgang Hering - Meine schönsten Kunterbunten Lieder
DYEAR=2014
DGENRE=National Folk
TTITLE0=Tiger-Hit
TTITLE1=Zwei lange Schlangen
TTITLE2=Wir sind die Klatschmeister
TTITLE3=Schubidua-Tanz
TTITLE4=Sternenfänger
TTITLE5=Sommer, Sonne, blaues Meer
TTITLE6=Muskeln müssen stark sein
TTITLE7=Meine Bieber haben Fieber
TTITLE8=Raumschiff Orbi
TTITLE9=Mein kleiner Flummiball
TTITLE10=Ourzelbaum und Kissenschlacht
TTITLE11=Alle Uhren bleiben stehn
TTITLE12=Funkelsterne
TTITLE13=Seegespenster
TTITLE14=Obst aus aller Welt
TTITLE15=Ich bin eine Palme
TTITLE16=Tanzparty
TTITLE17=Alles Gute dir von Herzen
TTITLE18=Kinderaugen
EXTD=
EXTT0=
EXTT1=
EXTT2=
EXTT3=
EXTT4=
EXTT5=
EXTT6=
EXTT7=
EXTT8=
EXTT9=
EXTT10=
EXTT11=
EXTT12=
EXTT13=
EXTT14=
EXTT15=
EXTT16=
EXTT17=
EXTT18=
PLAYORDER=
